<svg xmlns="http://www.w3.org/2000/svg" width="11.657" height="15.967" viewBox="0 0 11.657 15.967"><path d="M11.564 13.947l-3.065-8.26v-2.44a1.464 1.464 0 0 0 .994-1.381v-.4A1.473 1.473 0 0 0 8.014 0h-4.37a1.474 1.474 0 0 0-1.479 1.466v.4a1.462 1.462 0 0 0 1 1.381v2.44l-3.059 8.25a1.453 1.453 0 0 0 .142 1.37 1.5 1.5 0 0 0 1.228.65h8.722a1.5 1.5 0 0 0 1.227-.65 1.452 1.452 0 0 0 .139-1.36zm-8.111-1.87a.5.5 0 1 1 .5.5.5.5 0 0 1-.5-.5zm3.25.43a.865.865 0 1 1-.871.87.87.87 0 0 1 .871-.87zm-.742-1.89a.628.628 0 0 1 1.256 0 .628.628 0 0 1-1.256 0zm-1.828-4.76v-3.49h-.489a.5.5 0 0 1-.5-.5v-.4a.5.5 0 0 1 .5-.5h4.375a.5.5 0 0 1 .5.5v.4a.506.506 0 0 1-.506.5h-.489v3.49l.859 2.31-.034.03c-.639.66-5.308.74-5.308.74h-.045zm1.353 1.87a.685.685 0 0 0 .681-.68.682.682 0 0 0-1.363 0 .684.684 0 0 0 .682.68z" fill="#fff" fill-rule="evenodd"/></svg>