<svg xmlns="http://www.w3.org/2000/svg" width="15.969" height="15" viewBox="0 0 15.969 15"><path d="M15.921.03a.157.157 0 0 0-.173-.02L.074 7.94a.171.171 0 0 0-.088.16.169.169 0 0 0 .112.14L5.059 9.8a.149.149 0 0 0 .156-.03l7.545-6.39-5.795 6.79a.169.169 0 0 0-.032.15.178.178 0 0 0 .108.11l5.822 1.76h.047a.115.115 0 0 0 .08-.02.161.161 0 0 0 .077-.1L15.978.19a.151.151 0 0 0-.057-.16zM8.745 12.17l-1.609-.49a.147.147 0 0 0-.143.02.161.161 0 0 0-.066.13v3.01a.156.156 0 0 0 .117.15c.014 0 .029.01.045.01a.162.162 0 0 0 .136-.08l1.609-2.52a.15.15 0 0 0-.089-.23z" fill="#fff" fill-rule="evenodd"/></svg>