<svg xmlns="http://www.w3.org/2000/svg"><symbol id="basket-icon" viewBox="0 0 20 20">
            <path data-name="SHOPPING CART" d="M1501.73,40.663h0l-2.48,5.5h0a0.815,0.815,0,0,1-.7.484h0l-7.12.475,0.41,1.177h7.76a1.65,1.65,0,1,1-1.65,1.651h-7.7a1.65,1.65,0,1,1-1.65-1.651h1.49l-3.18-9.075h-1.89a0.825,0.825,0,0,1,0-1.65h2.48a0.835,0.835,0,0,1,.78.554h0l0.48,1.373h12.21a0.826,0.826,0,0,1,.83.825A0.941,0.941,0,0,1,1501.73,40.663Zm-12.39.487,1.52,4.357,7.09-.473,1.75-3.884h-10.36Z" transform="translate(-1484.19 -37.563)"/>
</symbol><symbol id="glas-icon" viewBox="0 0 20 20">
 
  <path data-name="MAGNIFYING GLASS" d="M1561.32,50.983a1.652,1.652,0,0,1-2.34,2.334h0l-4.83-4.836a6.627,6.627,0,1,1,2.33-2.334l4.84,4.836h0ZM1550.8,37.849a4.95,4.95,0,1,0,4.95,4.95A4.953,4.953,0,0,0,1550.8,37.849Z" transform="translate(-1544.19 -36.188)"/>
</symbol></svg>